<?xml version="1.0" encoding="UTF-8"?>
<svg id="Camada_2" data-name="Camada 2" xmlns="http://www.w3.org/2000/svg" viewBox="0 0 623.29 476.26">
  <defs>
    <style>
      .cls-1, .cls-2 { stroke: #000; stroke-miterlimit: 10; stroke-width: 2px; }
      .cls-3 { font-family: HankenGrotesk-Italic, 'Hanken Grotesk'; font-size: 40px; font-style: italic; font-variation-settings: 'wght' 400; }
      .cls-2 { fill: none; }
      .cls-4 { letter-spacing: 0em; }
      .cls-5 { letter-spacing: .03em; }
      .cls-6 { letter-spacing: .02em; }
      .cls-7 { letter-spacing: .02em; }
      .cls-8 { letter-spacing: .03em; }
      .cls-9 { letter-spacing: .03em; }
    </style>
  </defs>
  <g id="Camada_1-2" data-name="Camada 1">
    <g>
      <path class="cls-2" d="M518.26,414.36c-79.09,53.6-185.29,73.72-285.86,52.73C98.3,439.12,4.54,347.6,1.1,244.23-2.38,139.48,84.93,43.45,218.03,11.92c151.41-35.88,312.18,19.17,376.45,128.37,55.54,94.36,26.75,204.29-76.22,274.08ZM594.93,269.53c23.5-123.85-93.21-236.83-254.18-249.14C161.19,6.66,11.44,120.17,26.47,256.16c13.41,121.32,157.61,213.38,318.66,198.73,127.23-11.57,231.2-87.32,249.8-185.36Z"/>
      <g>
        <g>
          <path class="cls-1" d="M230.03,199.49c0-11.82-9.2-20.76-21.01-21.68-11.67-.91-23.22-.8-34.87-.04-12.17.8-21.7,9.54-21.71,21.73v33.44c0,12.25,9.45,21.08,21.71,21.82,11.81.72,23.55,1.1,35.73-.22,11.67-1.26,20.13-10.2,20.14-21.47v-33.59ZM202.43,237.61l-22.03.05c-4,0-6.84-2.76-6.83-6.86l.08-29.03c0-3.57,2.61-6.62,6.14-6.61l23.48.05c3.51,0,5.55,3.18,5.55,6.55l.04,29.02c0,3.71-2.36,6.83-6.43,6.84Z"/>
          <polygon class="cls-1" points="119.42 206.3 86.98 206.35 87.06 178.16 65.73 178.29 65.7 254.53 87 254.55 87.01 223.95 119.43 223.88 119.43 254.54 140.65 254.46 140.68 178.14 119.4 178.3 119.42 206.3"/>
          <path class="cls-1" d="M466.45,207.6l-27.74-.28c-1.47-.01-3.25-.28-3.75-1.81-1.26-3.89-.8-9.89,3.16-9.9l41.21-.05.02-17.48-46.47.29c-6.78.04-13.13,3.34-16.56,8.99-4.13,6.78-4.22,22.99.73,29.34,3.85,4.93,9.83,7.52,16.15,7.58l26.53.28c1.34.01,3.25.46,3.75,1.76,1.41,3.69,1.28,10.91-3.25,10.92l-45.12.1v17.34s51.5-.43,51.5-.43c9.95-.08,16.85-7.73,17.98-16.74.58-4.62.54-8.87.06-13.38-1.04-9.65-8.44-16.43-18.18-16.53Z"/>
          <polygon class="cls-1" points="260.02 254.52 281.23 254.43 281.23 195.74 306.03 195.71 306.02 178.2 235.36 178.21 235.34 195.71 260.01 195.78 260.02 254.52"/>
          <polygon class="cls-1" points="486.51 178.24 486.61 195.7 511.48 195.7 511.51 254.56 532.67 254.45 532.72 195.75 557.59 195.73 557.45 178.24 486.51 178.24"/>
          <polygon class="cls-1" points="374.31 236.73 335.1 236.72 335.09 178.14 313.91 178.28 313.88 254.55 374.34 254.54 374.31 236.73"/>
          <polygon class="cls-1" points="403.03 254.44 403.04 178.11 381.8 178.2 381.86 254.58 403.03 254.44"/>
        </g>
        <text class="cls-3" transform="translate(171.7 320.86)"><tspan class="cls-8" x="0" y="0">DI</tspan><tspan class="cls-5" x="39.52" y="0">E</tspan><tspan class="cls-7" x="63.92" y="0">C</tspan><tspan class="cls-8" x="92.84" y="0">A</tspan><tspan class="cls-6" x="119.52" y="0">S</tspan><tspan class="cls-9" x="143.04" y="0">T C</tspan><tspan class="cls-4" x="208.64" y="0">L</tspan><tspan class="cls-9" x="228.4" y="0">UB</tspan></text>
      </g>
    </g>
  </g>
</svg>
